<svg id="Capa_1" data-name="Capa 1" xmlns="http://www.w3.org/2000/svg" viewBox="0 0 568 568"><defs><style>.cls-1{fill:#1a1a1a;opacity:0.88;}.cls-2,.cls-3{fill:#fff;}.cls-3{font-size:81.01px;font-family:NotoSans, Noto Sans;}</style></defs><circle class="cls-1" cx="284" cy="284" r="284"/><path class="cls-2" d="M1158.39,213.64c2-1,2-2.87,2.62-4.27a97.11,97.11,0,0,1,37.8-44.15c3.32-2.09,4-3.56,2.48-7.44-8-20.11-6.21-39.46,7-56.8,17.66-23.12,49.34-22.85,66.69.49,12.88,17.35,14.47,36.5,6.64,56.42-1.36,3.46-1.2,4.94,2.17,7.13,28.59,18.59,43.75,45.18,46.23,79.11,0,.72.07,1.44.08,2.17.07,5.6-2,8.6-6.05,8.39-5-.26-5.74-3.77-5.95-8-1.48-30.81-15-54.81-40.8-71.87-2.85-1.88-4.63-2.36-7.63.48-16.77,15.88-39.64,15.89-56.43,0-3-2.84-4.81-2.4-7.67-.51-25.42,16.81-38.91,40.45-40.83,70.79,0,.36,0,.72,0,1.09.11,4.19-.78,7.93-5.88,7.92-5.4,0-6.1-4-6.14-8.35a81.14,81.14,0,0,0-5.78-29,87.19,87.19,0,0,0-35.74-42.93c-2.48-1.57-4-1.63-6.34.59-17.39,16.35-40,16.43-57.26.16-2.52-2.39-4.13-2.32-6.74-.6-25.81,16.93-39.72,40.68-41.31,71.57,0,.9.05,1.82,0,2.71-.46,3.71-2.34,6.11-6.33,5.92-3.69-.18-5.48-2.53-5.56-6.07a92.64,92.64,0,0,0-3.1-22.47c-6.08-22-18.88-39.06-38-51.45-2.72-1.76-4.4-2.16-7.2.48-17,16.09-39.78,16.1-56.86,0-2.78-2.61-4.5-2.3-7.23-.5-26,17.14-39.57,41.28-41.1,72.31-.28,5.74-2.92,8.62-7.2,7.59s-4.88-4.33-4.73-8c1.05-25.76,10.14-48.15,28-66.84a86.27,86.27,0,0,1,19-15.17c2.77-1.61,3.1-2.89,1.77-5.88-5.87-13.23-6.45-26.93-2.24-40.72,6.3-20.6,23.48-34.17,42.6-34,18.86.19,35.67,13.93,41.77,34.35a57.71,57.71,0,0,1-2.41,40.73c-1,2.33-1.27,3.59,1.29,5.15a97.49,97.49,0,0,1,40.49,48,13.46,13.46,0,0,0,1.28,2c8.39-21.43,22-38.26,41.55-50,3.25-2,1.67-3.6.82-5.66-7.15-17.44-6.68-34.69,2.66-51.08,8.88-15.6,22.22-24.76,40.84-23.15s30.11,12.94,37,29.29c6.34,15,5.86,30.25-.47,45.3-.66,1.58-2.53,3.13.38,4.88A98.68,98.68,0,0,1,1158.39,213.64Zm-49.26-77.88c-.29-11.83-3.65-22.45-12.19-30.95-12.06-12-29.54-12-41.62,0-16.06,15.92-16,45.47.06,61.37,12.14,12,29.53,12,41.61-.07C1105.35,157.78,1108.73,147.34,1109.13,135.76ZM943.65,138c.06-14.63-4.42-25.93-12.4-33.6-11.75-11.29-28.59-11.42-40.48-.31-16.9,15.8-17,46.49-.31,62.51,12,11.52,28.87,11.56,40.82-.08A40.45,40.45,0,0,0,943.65,138Zm265-3.74c0,12.43,3.34,22.7,11.28,31.14,12.22,13,30.24,13.1,42.75.42,15.8-16,15.43-45.83-.75-61.39-11.92-11.45-29-11.52-40.85,0C1212.47,112.85,1208.82,123.36,1208.65,134.26Z" transform="translate(-792 80)"/><text class="cls-3" transform="translate(81.62 478.12)">Estudiante</text></svg>