<svg id="Capa_1" data-name="Capa 1" xmlns="http://www.w3.org/2000/svg" viewBox="0 0 1119 525"><defs><style>.cls-1{opacity:0.65;}.cls-2,.cls-4{fill:#1a5fe2;}.cls-3{fill:#fff;}.cls-4{opacity:0.3;}</style></defs><g class="cls-1"><rect class="cls-2" y="1" width="1119" height="524"/></g><path class="cls-3" d="M1019,317a100,100,0,1,0,100,100A100,100,0,0,0,1019,317ZM995,437a52,52,0,1,1,52-52A52,52,0,0,1,995,437Z"/><polygon class="cls-4" points="0 525 1119 1 0 1 0 525"/><polygon class="cls-4" points="0 475 1119 1 0 1 0 475"/><polygon class="cls-4" points="0 434 1119 1 0 1 0 434"/><polygon class="cls-4" points="0 395 1119 1 0 1 0 395"/><path class="cls-3" d="M1079,173A100,100,0,0,1,1010.66,0h-31.9A124,124,0,0,0,1119,190.4V164.67A99.54,99.54,0,0,1,1079,173Z"/><path class="cls-3" d="M1071,0a52,52,0,1,0,48,72V32A52,52,0,0,0,1071,0Zm0,96a44,44,0,1,1,44-44A44,44,0,0,1,1071,96Z"/><path class="cls-3" d="M613.4,237.76A184.82,184.82,0,0,0,527,209.45q-6.43-.45-13-.45A185.82,185.82,0,0,0,329.58,370.67,187.72,187.72,0,0,0,328,395a185.38,185.38,0,0,0,53,130h29.79A166,166,0,0,1,514,229q7.18,0,14.22.6a166,166,0,0,1,89,295.4H647A186,186,0,0,0,613.4,237.76Z"/><path class="cls-3" d="M529,283a114.31,114.31,0,0,0-14,.86A117,117,0,0,0,450,314.27c-25.73,23.65-42,58.66-42,97.73,0,48.67,25.27,91,62.59,113H587.41C624.73,503,650,460.67,650,412,650,340.75,595.83,283,529,283Zm0,239.21c-57.09,0-103.37-49.34-103.37-110.21S471.91,301.79,529,301.79,632.37,351.13,632.37,412,586.09,522.21,529,522.21Z"/><path class="cls-3" d="M514,328a56,56,0,1,0,56,56A56,56,0,0,0,514,328Zm-13,56a22.79,22.79,0,1,1,22.79-22.79A22.79,22.79,0,0,1,501,384Z"/></svg>