<svg id="Capa_1" data-name="Capa 1" xmlns="http://www.w3.org/2000/svg" xmlns:xlink="http://www.w3.org/1999/xlink" viewBox="0 0 1368 1368"><defs><style>.cls-1{fill:url(#Degradado_sin_nombre_270);}.cls-10,.cls-2,.cls-3,.cls-4{stroke:#1a9ae3;stroke-miterlimit:10;}.cls-2{fill:url(#Degradado_sin_nombre_270-2);}.cls-3{fill:url(#Degradado_sin_nombre_270-3);}.cls-4{fill:url(#Degradado_sin_nombre_270-4);}.cls-5{fill:url(#Degradado_sin_nombre_218);}.cls-6{fill:url(#Degradado_sin_nombre_274);}.cls-7{mask:url(#mask);}.cls-8{fill:url(#Degradado_sin_nombre_218-2);}.cls-9{fill:url(#Degradado_sin_nombre_219);}.cls-10{fill:none;}.cls-11{fill:url(#Degradado_sin_nombre_121);}.cls-12{fill:#fff;}.cls-13{fill:url(#Degradado_sin_nombre_125);}.cls-14{fill:url(#Degradado_sin_nombre_125-2);}</style><radialGradient id="Degradado_sin_nombre_270" cx="-3814.43" cy="-91.25" r="18.36" gradientUnits="userSpaceOnUse"><stop offset="0" stop-color="#fff"/><stop offset="0.37" stop-color="#fdfdfd"/><stop offset="0.51" stop-color="#f6f6f6"/><stop offset="0.6" stop-color="#ebebeb"/><stop offset="0.68" stop-color="#dadada"/><stop offset="0.75" stop-color="#c4c4c4"/><stop offset="0.8" stop-color="#a8a8a8"/><stop offset="0.86" stop-color="#888"/><stop offset="0.91" stop-color="#626262"/><stop offset="0.95" stop-color="#373737"/><stop offset="0.99" stop-color="#090909"/><stop offset="1"/></radialGradient><radialGradient id="Degradado_sin_nombre_270-2" cx="-3813.75" cy="-774.25" r="682.75" xlink:href="#Degradado_sin_nombre_270"/><radialGradient id="Degradado_sin_nombre_270-3" cx="-4496.75" cy="-774" r="18.67" xlink:href="#Degradado_sin_nombre_270"/><radialGradient id="Degradado_sin_nombre_270-4" cx="-3814" cy="-91.25" r="18.67" xlink:href="#Degradado_sin_nombre_270"/><linearGradient id="Degradado_sin_nombre_218" x1="-3605.07" y1="-216.6" x2="-4002.51" y2="-1275" gradientUnits="userSpaceOnUse"><stop offset="0" stop-color="#1a9ae3"/><stop offset="0.73" stop-color="#1c3ee2"/><stop offset="1" stop-color="#1d1be1"/></linearGradient><linearGradient id="Degradado_sin_nombre_274" x1="-3760.25" y1="-158.95" x2="-4157.69" y2="-1217.35" gradientUnits="userSpaceOnUse"><stop offset="0" stop-color="blue"/><stop offset="0.55" stop-color="#225cfa"/><stop offset="1" stop-color="#3fa9f5"/></linearGradient><mask id="mask" x="0" y="0" width="1368" height="1368" maskUnits="userSpaceOnUse"><g transform="translate(4498 1458)"><path class="cls-1" d="M-3788.47-91.5l-.34,0q-12.53.46-25.19.46-13.26,0-26.4-.5Z"/><path class="cls-2" d="M-3131-774c0,368.37-291.62,668.63-656.6,682.5h-52.8C-4196.62-105-4483-391.38-4496.5-747.6v-52.8c13.51-355.39,298.55-641.23,653.62-656q14.36-.6,28.88-.6C-3436.79-1457-3131-1151.21-3131-774Z"/><path class="cls-3" d="M-4497-774q0-13.26.5-26.4v52.8Q-4497-760.72-4497-774Z"/><path class="cls-4" d="M-3787.6-91.5l-1.21,0q-12.53.46-25.19.46-13.26,0-26.4-.5Z"/></g></mask><linearGradient id="Degradado_sin_nombre_218-2" x1="-4123.52" y1="-1245.18" x2="-3583.25" y2="-422.73" xlink:href="#Degradado_sin_nombre_218"/><linearGradient id="Degradado_sin_nombre_219" x1="-4198.63" y1="-247.03" x2="-3479.96" y2="-1420.37" gradientUnits="userSpaceOnUse"><stop offset="0" stop-color="#1a9ae3"/><stop offset="0.64" stop-color="#1c3ee2"/><stop offset="0.87" stop-color="#1d1be1"/></linearGradient><linearGradient id="Degradado_sin_nombre_121" x1="-4064.97" y1="-1041.44" x2="-3503.08" y2="-1863.57" gradientTransform="translate(178.34 -294.1) rotate(-14.75)" gradientUnits="userSpaceOnUse"><stop offset="0"/><stop offset="1" stop-color="#000073"/></linearGradient><linearGradient id="Degradado_sin_nombre_125" x1="-3587.92" y1="-1172.72" x2="-3587.92" y2="-1172.72" gradientUnits="userSpaceOnUse"><stop offset="0" stop-color="#1a9ae3"/><stop offset="1" stop-color="#1d1be1"/></linearGradient><linearGradient id="Degradado_sin_nombre_125-2" x1="-5436.92" y1="-1283.72" x2="-5436.92" y2="-1283.72" xlink:href="#Degradado_sin_nombre_125"/></defs><path class="cls-5" d="M-3130.5-773c0,368.64-291.83,669.12-657.08,683h-52.84c-356.48-13.55-643-300.1-656.58-656.58v-52.84c13.52-355.65,298.77-641.7,654.1-656.48q14.37-.6,28.9-.6C-3436.51-1456.5-3130.5-1150.49-3130.5-773Z" transform="translate(4498 1458)"/><path class="cls-6" d="M-3787.45-91l-.34,0q-12.54.46-25.21.46-13.27,0-26.42-.5c-356.48-13.55-643-300.1-656.58-656.58v-52.84c13.52-355.65,298.77-641.7,654.1-656.48,235.14,62.21,216.5,226.71,216.5,226.71L-3700-854l313,296C-3353.11-210.48-3596-113.92-3787.45-91Z" transform="translate(4498 1458)"/><g class="cls-7"><path class="cls-8" d="M-3130.5-774c0,368.64-291.83,669.12-657.08,683h-52.84c-356.48-13.55-643-300.1-656.58-656.58v-52.84c13.52-355.65,298.77-641.7,654.1-656.48q14.37-.6,28.9-.6C-3436.51-1457.5-3130.5-1151.49-3130.5-774Z" transform="translate(4498 1458)"/><path class="cls-9" d="M-3788.45-91l-.34,0q-12.54.46-25.21.46-13.27,0-26.42-.5c-356.48-13.55-643-300.1-656.58-656.58v-52.84c13.52-355.65,298.77-641.7,654.1-656.48,235.14,62.21,216.5,226.71,216.5,226.71L-3701-854l313,296C-3354.11-210.48-3597-113.92-3788.45-91Z" transform="translate(4498 1458)"/><path class="cls-10" d="M-3130.5-774c0,368.64-291.83,669.12-657.08,683l-1.21,0q-12.54.46-25.21.46-13.27,0-26.42-.5c-356.48-13.55-643-300.1-656.58-656.58q-.49-13.14-.5-26.42t.5-26.42c13.52-355.65,298.77-641.7,654.1-656.48q14.37-.6,28.9-.6C-3436.51-1457.5-3130.5-1151.49-3130.5-774Z" transform="translate(4498 1458)"/><path class="cls-11" d="M-3391-686.28c-30.35-115.26-124.81-192.88-221.25-188.54a209.53,209.53,0,0,0,24.45-62.93c.33-1.5.64-3,.94-4.52,7.09-36,6.15-75.74-4.39-115.78a267.91,267.91,0,0,0-26.15-64.4q-2.67-4.71-5.51-9.24c-45.16-72.07-120.82-111.64-192.21-92.85l-394.45,103.85-14-53.19L-4246.3-1111l221.75,842.3,500.05-131.64c70.82-18.65,120.92-80.26,137.31-157,.44-2.06.85-4.12,1.24-6.2a266.66,266.66,0,0,0,4.48-43.45A286.24,286.24,0,0,0-3391-686.28Zm-512.68,36.22,215.71-56.79c54.45-14.33,107.88,9.33,119.33,52.86a66.5,66.5,0,0,1,1.68,8.73c5.05,40.9-28.69,82.66-79.51,96l-252.45,66.46-41.5-157.63ZM-3993-989.49l166.34-43.8c43.79-11.53,88.58,14.42,100,57.94a81.11,81.11,0,0,1,2.45,14.46,81.88,81.88,0,0,1-61,85.23l-203.08,53.47-41.49-157.63Z" transform="translate(4498 1458)"/><path class="cls-12" d="M-3368.24-749.14c-30.16-114.58-123.69-192-219.54-188.61l-1.71.07c.9-1.51,1.79-3,2.65-4.59,27.17-48.52,35.57-113.23,18.36-178.64a264.84,264.84,0,0,0-36-80.25l0,0q-5.14-7.65-10.73-14.76v0c-45.82-58.25-113.2-88.26-177.16-71.42l-431.19,113.52,14,53.19,207.74,789.11,500-131.65c50.08-13.18,89.8-47.85,114.57-94.18q1.23-2.3,2.41-4.64a234.48,234.48,0,0,0,14.15-34.82C-3356.07-642.82-3354.21-695.85-3368.24-749.14Zm-356-211.75a82.07,82.07,0,0,1-38.25,22.37l-203.08,53.46L-3993-989.49l-14-53.19,203.08-53.47c43.8-11.53,88.59,14.41,100.05,57.94A81.35,81.35,0,0,1-3724.19-960.89Zm157.25,315.63c-14,15.1-33.62,27.08-56.76,33.18l-252.46,66.46-27.5-104.44-14-53.19,252.46-66.46c54.45-14.34,107.87,9.33,119.33,52.86C-3539.28-691.83-3548-665.69-3566.94-645.26Z" transform="translate(4498 1458)"/><path class="cls-13" d="M-3587.92-1172.72Z" transform="translate(4498 1458)"/></g><path class="cls-14" d="M-5436.92-1283.72Z" transform="translate(4498 1458)"/></svg>