<svg id="Capa_1" data-name="Capa 1" xmlns="http://www.w3.org/2000/svg" xmlns:xlink="http://www.w3.org/1999/xlink" viewBox="0 0 146 146"><defs><style>.cls-1{opacity:0.62;fill:url(#Degradado_sin_nombre_32);}.cls-2{mask:url(#mask);}.cls-3{fill:url(#radial-gradient);}.cls-4{fill:url(#linear-gradient);}.cls-5{fill:none;}.cls-6{fill:url(#radial-gradient-2);}.cls-7{fill:url(#linear-gradient-2);}.cls-8{fill:url(#linear-gradient-3);}.cls-9{fill:#fff;}</style><radialGradient id="Degradado_sin_nombre_32" cx="-145.3" cy="-4.47" fx="-125.16917181359659" fy="14.542756785252628" r="83.17" gradientUnits="userSpaceOnUse"><stop offset="0.1" stop-color="#00feff"/><stop offset="0.98" stop-color="#0c0054"/></radialGradient><mask id="mask" x="-9.61" y="-9.61" width="165.21" height="165.21" maskUnits="userSpaceOnUse"><g transform="translate(218 75)"><circle class="cls-1" cx="-145" cy="-2" r="82.61"/></g></mask><radialGradient id="radial-gradient" cx="-32.95" cy="61.59" r="82.95" gradientTransform="translate(-7.94 -70.63) scale(2.08 2.08)" gradientUnits="userSpaceOnUse"><stop offset="0" stop-color="#00feff"/><stop offset="1" stop-color="#0c0054"/></radialGradient><linearGradient id="linear-gradient" x1="-208.63" y1="-51.41" x2="-94.88" y2="56.34" gradientUnits="userSpaceOnUse"><stop offset="0" stop-color="#1ad7e2"/><stop offset="1" stop-color="#1a5fe2"/></linearGradient><radialGradient id="radial-gradient-2" cx="-37.27" cy="57.83" r="72.03" xlink:href="#radial-gradient"/><linearGradient id="linear-gradient-2" x1="-200.25" y1="-44.91" x2="-101.48" y2="48.66" xlink:href="#linear-gradient"/><linearGradient id="linear-gradient-3" x1="-188.98" y1="3.41" x2="-96.53" y2="3.41" gradientUnits="userSpaceOnUse"><stop offset="0"/><stop offset="1" stop-color="#1a5fe2"/></linearGradient></defs><g class="cls-2"><path class="cls-3" d="M-72-2A72.74,72.74,0,0,1-89,44.85a75.88,75.88,0,0,1-5.4,5.76l-78.32,14.91a68,68,0,0,1-9.52-4.72L-202.76-46.61A72.77,72.77,0,0,1-145-75c.92,0,1.88,0,2.8,0A73,73,0,0,1-72-2Z" transform="translate(218 75)"/><path class="cls-4" d="M-89,44.85a75.88,75.88,0,0,1-5.4,5.76A72.81,72.81,0,0,1-145,71a72,72,0,0,1-27.72-5.48,68,68,0,0,1-9.52-4.72A73,73,0,0,1-218-2a72.59,72.59,0,0,1,15.24-44.63A72.77,72.77,0,0,1-145-75c.92,0,1.88,0,2.8,0a27.87,27.87,0,0,1,17.64,19.71c0,.08,0,.13,0,.21.52,2.07.84,3.39.84,3.39v.08c-4-1.4-7.08-3.36-10.44-3.36h-.32a30.07,30.07,0,0,0-4.52.4c-2.4.4-5,1-7.8,1.56l-34.16,4.64-.36,0-4.76.64,0,.28,18,101.21,0,.16.92,5.28s53.52-10.23,55.36-10.23h0c.72,0,1.4-.76,2-1.24l.08-.08a7.16,7.16,0,0,1,2-1.24l.12-.12c.52-.48,1.12-2.68,1.6-2.88.8-.28.88-1.48,1.68-1.84.36-.12.48-.72.64-1.2s.24-.68.48-.8c.08,0,.6-1.64.64-1.68,7.64-4.32,8-10.16,11-16.64q.6,2,1.08,3.84c.4,1.56.76,3.08,1,4.56A44,44,0,0,1-89,44.85Z" transform="translate(218 75)"/><path class="cls-5" d="M-72-2A72.74,72.74,0,0,1-89,44.85a75.88,75.88,0,0,1-5.4,5.76A72.81,72.81,0,0,1-145,71a72,72,0,0,1-27.72-5.48,68,68,0,0,1-9.52-4.72A73,73,0,0,1-218-2a72.59,72.59,0,0,1,15.24-44.63A72.77,72.77,0,0,1-145-75c.92,0,1.88,0,2.8,0A73,73,0,0,1-72-2Z" transform="translate(218 75)"/></g><path class="cls-6" d="M-81.61-2A63.12,63.12,0,0,1-96.37,38.68a63.78,63.78,0,0,1-4.69,5l-68,13a60,60,0,0,1-8.27-4.1l-17.82-93.28A63.2,63.2,0,0,1-145-65.39c.8,0,1.63,0,2.43,0A63.38,63.38,0,0,1-81.61-2Z" transform="translate(218 75)"/><path class="cls-7" d="M-96.37,38.68a63.78,63.78,0,0,1-4.69,5A63.17,63.17,0,0,1-145,61.39a62.51,62.51,0,0,1-24.07-4.75,60,60,0,0,1-8.27-4.1A63.37,63.37,0,0,1-208.39-2a63.05,63.05,0,0,1,13.23-38.76A63.2,63.2,0,0,1-145-65.39c.8,0,1.63,0,2.43,0a24.19,24.19,0,0,1,15.32,17.12c0,.07,0,.11,0,.17.45,1.81.73,3,.73,3V-45C-130-46.26-132.63-48-135.55-48h-.28a25.8,25.8,0,0,0-3.92.35c-2.09.34-4.35.86-6.78,1.35l-29.66,4-.32,0-4.13.56,0,.24L-165,46.5l0,.14.8,4.58s46.47-8.89,48.07-8.89h0c.62,0,1.21-.66,1.77-1.08l.07-.07a6.16,6.16,0,0,1,1.73-1.07l.11-.11c.45-.41,1-2.32,1.39-2.5.69-.24.76-1.28,1.46-1.6.31-.1.41-.62.55-1s.21-.59.42-.69.52-1.43.55-1.46c6.64-3.75,6.92-8.82,9.59-14.45.35,1.15.66,2.26.94,3.34.35,1.35.66,2.67.87,4A38.14,38.14,0,0,1-96.37,38.68Z" transform="translate(218 75)"/><path class="cls-8" d="M-98.06,8.93l-.18-.58a25.08,25.08,0,0,0-.88-2.48l-.28-.67c-.27-.62-.56-1.24-.89-1.83q-.18-.36-.39-.72c-.17-.32-.36-.63-.55-.94s-.32-.51-.49-.77a26.44,26.44,0,0,0-4.83-5.51c-.22-.2-.43-.38-.67-.56A19.12,19.12,0,0,0-109-6.47c-.46-.31-.93-.62-1.42-.91s-.83-.5-1.26-.72l0,0a5.43,5.43,0,0,0-.59-.3c-.43-.22-.86-.43-1.3-.62s-1-.43-1.47-.62l-.31-.11a28.28,28.28,0,0,0,1.5-9.84,29,29,0,0,0-.52-4.89,27.86,27.86,0,0,0-16-20.3c-.18-.09-.47-.34-.64-.42a31.65,31.65,0,0,0-18.89-2L-189-39.79l18,94.47S-120.55,45.11-120,45c1.06-.28,2-.46,3-.82.39-.13.71-.19,1.08-.34.61-.24,1.19-.45,1.79-.73l1.25-.58a.26.26,0,0,0,.11-.07l.27-.15c.25-.16,1-.34,1.31-.51,5.69-3.2,9-7.75,12.48-12.94h0c0-4.59,2.63-9.8,2.09-15.15,0-.2-.54-1.74-.58-2C-97.37,10.73-97.81,9.82-98.06,8.93ZM-165.31-23.9l19.17-3.66c7.1-1.36,10.69.21,12,6.94a12,12,0,0,1,.09,4.86c-.7,3-3,4.71-7.14,5.74-.49.12-1.14.11-1.67.21h0l-19,3.6Zm39.25,50.68-28.74,5.48-3.38-17.72,24.94-4.76c8.09-1.55,14.78-.35,16.09,6.46C-116,22-119.83,25.59-126.06,26.78Z" transform="translate(218 75)"/><path class="cls-9" d="M-96,3.28l-.16-.55c-.25-.81-.52-1.6-.84-2.36l-.27-.63q-.37-.88-.84-1.74c-.12-.22-.23-.46-.37-.68s-.34-.6-.52-.89-.31-.49-.47-.73A25.38,25.38,0,0,0-104-9.53c-.21-.19-.41-.36-.63-.54a19,19,0,0,0-1.69-1.26c-.43-.3-.88-.59-1.34-.86s-.79-.48-1.2-.69l0,0c-.18-.1-.36-.2-.55-.29-.41-.2-.82-.4-1.24-.58s-.92-.41-1.4-.58l-.28-.11A26.9,26.9,0,0,0-111-23.8a28.09,28.09,0,0,0-.48-4.64A26.47,26.47,0,0,0-126.63-47.7c-.17-.08-.45-.32-.61-.4A30.07,30.07,0,0,0-145.16-50l-37.09,7.09,17.13,89.62s47.79-9.08,48.33-9.23c1-.26,1.9-.44,2.84-.78.37-.12.68-.18,1-.32.58-.22,1.13-.43,1.7-.69.4-.19,3.2-1.08,3.47-1.25,5.4-3,10.56-5.54,12.42-11.89,0,0,2.5-5.91.27-14.38C-95.11,8-95.74,4.12-96,3.28Zm-63.8-31.15,18.19-3.47c6.74-1.29,10.14.19,11.36,6.58a11.12,11.12,0,0,1,.09,4.61c-.66,2.85-2.84,4.47-6.78,5.45-.46.11-1.07.1-1.58.19h0l-18.07,3.41Zm37.24,48.08-27.26,5.2L-153,8.6l23.67-4.52c7.67-1.47,14-.33,15.26,6.13C-113.06,15.67-116.64,19.08-122.55,20.21Z" transform="translate(218 75)"/><polygon points="29.02 35.21 35.75 32.06 36.1 33.87 29.02 35.21"/><path class="cls-5" d="M-81.61-2A63.12,63.12,0,0,1-96.37,38.68a63.78,63.78,0,0,1-4.69,5A63.17,63.17,0,0,1-145,61.39a62.51,62.51,0,0,1-24.07-4.75,60,60,0,0,1-8.27-4.1A63.37,63.37,0,0,1-208.39-2a63.05,63.05,0,0,1,13.23-38.76A63.2,63.2,0,0,1-145-65.39c.8,0,1.63,0,2.43,0A63.38,63.38,0,0,1-81.61-2Z" transform="translate(218 75)"/></svg>