<svg id="Capa_1" data-name="Capa 1" xmlns="http://www.w3.org/2000/svg" viewBox="0 0 568 568"><defs><style>.cls-1{fill:#1a1a1a;opacity:0.88;}.cls-2,.cls-3{fill:#fff;}.cls-3{font-size:81.01px;font-family:NotoSans, Noto Sans;}.cls-4{letter-spacing:-0.01em;}.cls-5{letter-spacing:0em;}</style></defs><circle class="cls-1" cx="284" cy="284" r="284"/><path class="cls-2" d="M-481.95,169.46c-3.74-2.45-7.41-4.42-10.6-7-22.55-18.23-35.42-40.53-32.73-70.93,2.78-31.58,15.87-56.25,43-73.07C-457.7,3.2-409,2.2-382.45,26.79c2.34,2.17,4.77,2.52,7.68,2.52q140.17,0,280.35,0c21.81,0,34.09,12.25,34.09,34q0,85.22,0,170.42c0,21.51-12.27,33.83-33.7,33.83q-127.18,0-254.36,0c-6.76,0-9.42-1.53-9.48-5.43s2.63-5.53,9.33-5.53H-95.18c16.87,0,23.84-7,23.84-24V63.6c0-16-7.29-23.31-23.08-23.31H-369c16.51,22.66,21.62,48.2,16.74,74.48-5.09,27.46-23.42,45.89-49.36,57.82,8.62,6.28,15.27,14.66,24.5,20,6.38,3.66,11.49,2.72,18-3.44,10.86-10.32,21.58-20.82,32.28-31.32,4.77-4.68,10.3-7.2,17.05-6.76a3.55,3.55,0,0,1,1.48.14c6.87,3.93,10.61-.68,14.85-5,13.77-14,27.75-27.84,41.63-41.77,2.71-2.72,5.76-3.87,8.71-.92s1.91,6-.9,8.7c-.72.69-1.41,1.42-2.12,2.12-14.37,14.38-28.7,28.79-43.14,43.08-2.53,2.49-3.75,4.37-2.33,8.38,2.63,7.42.85,14.61-4.77,20.29-16.16,16.35-32.33,32.69-48.79,48.73-10.45,10.18-22.78,11.55-36,5.88a63.87,63.87,0,0,1-13.68-8.4v10.4c0,6.33,0,12.66,0,19,0,3.57-2,5.75-5.52,5.76a5,5,0,0,1-5.39-5.38c-.09-18.07,0-36.14,1-54.85,3.52,3.68,6.92,7.49,10.57,11,5.52,5.35,11.47,10.12,18.74,13,8.46,3.34,16.15,2.08,22.58-4.27q24.21-23.85,48.1-48c4.16-4.2,4.24-10,.57-13.9-3.84-4.08-9.78-4.2-14.23.06-11.07,10.59-21.89,21.46-33,32-11.31,10.65-22.32,11.31-35.17,2.41-3-2.08-5.78-4.49-8.57-6.87-3.42-2.92-6.63-6.08-10.12-8.91-2.58-2.08-5.43-3.82-8.19-5.67-2.31-1.56-3.81-1.5-5.24,1.51-3.84,8.12-10.63,12.37-19.54,12.28-9.13-.08-15.75-4.7-19.61-13-.75-1.61-1.26-2.88-3.52-2.49-8.88,1.5-17.67,3.22-25.75,7.47-8.9,4.67-13.58,11.56-13.36,22,.36,17.48.1,35,.09,52.47a29.42,29.42,0,0,1-.26,5,4.82,4.82,0,0,1-4.9,4.18,4.92,4.92,0,0,1-5.49-4.06,23.52,23.52,0,0,1-.33-5c0-17,.49-34-.16-51-.67-17.88,8-28.81,23.63-35.44C-486.08,171.14-484.16,170.37-481.95,169.46Zm65.27-6.51a32.74,32.74,0,0,0,20.3-5.45C-374.43,143-360,124-361.88,96a140,140,0,0,0-2-16.35c-5.49-29.14-22.34-49.37-50.51-57.48-29.23-8.43-56.7-3.88-79.06,19.31-17.68,18.34-22.61,41.05-20.67,65,2.05,25.55,17.65,42.65,40.06,53.78,4.29,2.13,9.07,3.44,14.58,2.22-1.7-2.44-4-2.51-5.88-3.29-23.41-9.88-38-27.27-44.38-51.75-.51-2-.62-3.13,2-3.93,21.48-6.62,33.08-22,36.94-43.46,1.48-8.19,1.41-16.65,2.14-26.25,2.89,6.42,5.47,11.59,7.59,16.94,6.76,17,19.12,28.53,35.3,36.32,17.86,8.59,36.86,12.2,56.55,12.44,3,0,4.3.08,3.52,3.95-5.49,27.13-21.09,45.72-46.53,56.26C-413.67,160.35-415.55,160.26-416.68,163Zm-45.23-90.69c-9.21,20.67-16.78,29.89-31.28,37.29-3.28,1.67-3.71,2.94-2.28,6.27,18.69,43.52,78.08,50.9,106.89,13.18A53.31,53.31,0,0,0-379,110.48C-411,107.05-440.43,98.78-461.91,72.26Zm23.85,92.05v0c-1.16,0-2.32.05-3.48,0-7.64-.32-9.4,2.29-6.49,9.69a10.16,10.16,0,0,0,9,6.8c4.33.41,7.73-1.52,10-5.22a12.16,12.16,0,0,0,1.1-10.56c-1-2.54-4.68-.35-7.15-.67A24.68,24.68,0,0,0-438.06,164.31Z" transform="translate(577 107)"/><path class="cls-2" d="M-469.51,248c0,4.32,0,8.63,0,12.94,0,3.64-1.4,6.34-5.31,6.46s-5.64-2.47-5.68-6.11q-.12-13.44,0-26.88c0-3.43,1.81-5.93,5.34-6,3.8-.08,5.6,2.42,5.63,6.14C-469.49,239-469.52,243.5-469.51,248Z" transform="translate(577 107)"/><text class="cls-3" transform="translate(121.02 473.12)">P<tspan class="cls-4" x="49.01" y="0">r</tspan><tspan class="cls-5" x="81.69" y="0">ofesor</tspan></text></svg>